<mxfile host="app.diagrams.net" modified="2023-01-30T15:04:39.483Z" agent="5.0 (Windows NT 10.0; Win64; x64) AppleWebKit/537.36 (KHTML, like Gecko) Chrome/109.0.0.0 Safari/537.36" etag="zL6Iy7MrTyAWVRGbMbsV" version="20.8.13" type="github">
  <diagram id="C5RBs43oDa-KdzZeNtuy" name="Page-1">
    <mxGraphModel dx="1105" dy="592" grid="1" gridSize="10" guides="1" tooltips="1" connect="1" arrows="1" fold="1" page="1" pageScale="1" pageWidth="827" pageHeight="1169" math="0" shadow="0">
      <root>
        <mxCell id="WIyWlLk6GJQsqaUBKTNV-0" />
        <mxCell id="WIyWlLk6GJQsqaUBKTNV-1" parent="WIyWlLk6GJQsqaUBKTNV-0" />
        <mxCell id="hS4W13zyt8rh5WFPuw_2-11" style="edgeStyle=orthogonalEdgeStyle;rounded=0;orthogonalLoop=1;jettySize=auto;html=1;exitX=0.5;exitY=1;exitDx=0;exitDy=0;entryX=0.5;entryY=0;entryDx=0;entryDy=0;" edge="1" parent="WIyWlLk6GJQsqaUBKTNV-1" source="hS4W13zyt8rh5WFPuw_2-4" target="hS4W13zyt8rh5WFPuw_2-7">
          <mxGeometry relative="1" as="geometry" />
        </mxCell>
        <mxCell id="hS4W13zyt8rh5WFPuw_2-4" value="Start" style="ellipse;whiteSpace=wrap;html=1;" vertex="1" parent="WIyWlLk6GJQsqaUBKTNV-1">
          <mxGeometry x="80" y="10" width="80" height="50" as="geometry" />
        </mxCell>
        <mxCell id="hS4W13zyt8rh5WFPuw_2-16" style="edgeStyle=orthogonalEdgeStyle;rounded=0;orthogonalLoop=1;jettySize=auto;html=1;exitX=0.5;exitY=1;exitDx=0;exitDy=0;" edge="1" parent="WIyWlLk6GJQsqaUBKTNV-1" source="hS4W13zyt8rh5WFPuw_2-5" target="hS4W13zyt8rh5WFPuw_2-15">
          <mxGeometry relative="1" as="geometry" />
        </mxCell>
        <mxCell id="hS4W13zyt8rh5WFPuw_2-89" style="edgeStyle=orthogonalEdgeStyle;rounded=0;orthogonalLoop=1;jettySize=auto;html=1;exitX=1;exitY=0.5;exitDx=0;exitDy=0;" edge="1" parent="WIyWlLk6GJQsqaUBKTNV-1" source="hS4W13zyt8rh5WFPuw_2-5">
          <mxGeometry relative="1" as="geometry">
            <mxPoint x="240" y="359.9090909090909" as="targetPoint" />
          </mxGeometry>
        </mxCell>
        <mxCell id="hS4W13zyt8rh5WFPuw_2-5" value="If b&amp;lt;a&lt;br&gt;AND&lt;br&gt;c&amp;lt;a" style="rhombus;whiteSpace=wrap;html=1;" vertex="1" parent="WIyWlLk6GJQsqaUBKTNV-1">
          <mxGeometry x="80" y="320" width="80" height="80" as="geometry" />
        </mxCell>
        <mxCell id="hS4W13zyt8rh5WFPuw_2-13" style="edgeStyle=orthogonalEdgeStyle;rounded=0;orthogonalLoop=1;jettySize=auto;html=1;exitX=0.5;exitY=1;exitDx=0;exitDy=0;" edge="1" parent="WIyWlLk6GJQsqaUBKTNV-1" source="hS4W13zyt8rh5WFPuw_2-6" target="hS4W13zyt8rh5WFPuw_2-5">
          <mxGeometry relative="1" as="geometry" />
        </mxCell>
        <mxCell id="hS4W13zyt8rh5WFPuw_2-22" style="edgeStyle=orthogonalEdgeStyle;rounded=0;orthogonalLoop=1;jettySize=auto;html=1;" edge="1" parent="WIyWlLk6GJQsqaUBKTNV-1" source="hS4W13zyt8rh5WFPuw_2-6">
          <mxGeometry relative="1" as="geometry">
            <mxPoint x="240" y="250" as="targetPoint" />
          </mxGeometry>
        </mxCell>
        <mxCell id="hS4W13zyt8rh5WFPuw_2-6" value="If a&amp;lt;c&lt;br&gt;AND&lt;br&gt;b&amp;lt;c" style="rhombus;whiteSpace=wrap;html=1;" vertex="1" parent="WIyWlLk6GJQsqaUBKTNV-1">
          <mxGeometry x="80" y="210" width="80" height="80" as="geometry" />
        </mxCell>
        <mxCell id="hS4W13zyt8rh5WFPuw_2-12" style="edgeStyle=orthogonalEdgeStyle;rounded=0;orthogonalLoop=1;jettySize=auto;html=1;exitX=0.5;exitY=1;exitDx=0;exitDy=0;entryX=0.5;entryY=0;entryDx=0;entryDy=0;" edge="1" parent="WIyWlLk6GJQsqaUBKTNV-1" source="hS4W13zyt8rh5WFPuw_2-7" target="hS4W13zyt8rh5WFPuw_2-6">
          <mxGeometry relative="1" as="geometry" />
        </mxCell>
        <mxCell id="hS4W13zyt8rh5WFPuw_2-21" style="edgeStyle=orthogonalEdgeStyle;rounded=0;orthogonalLoop=1;jettySize=auto;html=1;exitX=1;exitY=0.5;exitDx=0;exitDy=0;" edge="1" parent="WIyWlLk6GJQsqaUBKTNV-1" source="hS4W13zyt8rh5WFPuw_2-7">
          <mxGeometry relative="1" as="geometry">
            <mxPoint x="240" y="130" as="targetPoint" />
          </mxGeometry>
        </mxCell>
        <mxCell id="hS4W13zyt8rh5WFPuw_2-7" value="If a&amp;lt;b &lt;br&gt;AND&lt;br&gt;c&amp;lt;b" style="rhombus;whiteSpace=wrap;html=1;" vertex="1" parent="WIyWlLk6GJQsqaUBKTNV-1">
          <mxGeometry x="80" y="90" width="80" height="80" as="geometry" />
        </mxCell>
        <mxCell id="hS4W13zyt8rh5WFPuw_2-8" value="Stop" style="ellipse;whiteSpace=wrap;html=1;" vertex="1" parent="WIyWlLk6GJQsqaUBKTNV-1">
          <mxGeometry x="80" y="550" width="80" height="50" as="geometry" />
        </mxCell>
        <mxCell id="hS4W13zyt8rh5WFPuw_2-9" style="edgeStyle=orthogonalEdgeStyle;rounded=0;orthogonalLoop=1;jettySize=auto;html=1;exitX=0.5;exitY=1;exitDx=0;exitDy=0;" edge="1" parent="WIyWlLk6GJQsqaUBKTNV-1" source="hS4W13zyt8rh5WFPuw_2-8" target="hS4W13zyt8rh5WFPuw_2-8">
          <mxGeometry relative="1" as="geometry" />
        </mxCell>
        <mxCell id="hS4W13zyt8rh5WFPuw_2-17" style="edgeStyle=orthogonalEdgeStyle;rounded=0;orthogonalLoop=1;jettySize=auto;html=1;exitX=0.5;exitY=1;exitDx=0;exitDy=0;" edge="1" parent="WIyWlLk6GJQsqaUBKTNV-1" source="hS4W13zyt8rh5WFPuw_2-15" target="hS4W13zyt8rh5WFPuw_2-8">
          <mxGeometry relative="1" as="geometry" />
        </mxCell>
        <mxCell id="hS4W13zyt8rh5WFPuw_2-15" value="Print (a,b,c)" style="rounded=0;whiteSpace=wrap;html=1;" vertex="1" parent="WIyWlLk6GJQsqaUBKTNV-1">
          <mxGeometry x="60" y="460" width="120" height="30" as="geometry" />
        </mxCell>
        <mxCell id="hS4W13zyt8rh5WFPuw_2-18" value="False" style="text;html=1;strokeColor=none;fillColor=none;align=center;verticalAlign=middle;whiteSpace=wrap;rounded=0;" vertex="1" parent="WIyWlLk6GJQsqaUBKTNV-1">
          <mxGeometry x="120" y="170" width="60" height="30" as="geometry" />
        </mxCell>
        <mxCell id="hS4W13zyt8rh5WFPuw_2-19" value="False" style="text;html=1;strokeColor=none;fillColor=none;align=center;verticalAlign=middle;whiteSpace=wrap;rounded=0;" vertex="1" parent="WIyWlLk6GJQsqaUBKTNV-1">
          <mxGeometry x="120" y="290" width="60" height="30" as="geometry" />
        </mxCell>
        <mxCell id="hS4W13zyt8rh5WFPuw_2-20" value="False" style="text;html=1;strokeColor=none;fillColor=none;align=center;verticalAlign=middle;whiteSpace=wrap;rounded=0;" vertex="1" parent="WIyWlLk6GJQsqaUBKTNV-1">
          <mxGeometry x="120" y="410" width="60" height="30" as="geometry" />
        </mxCell>
        <mxCell id="hS4W13zyt8rh5WFPuw_2-24" value="" style="endArrow=classic;startArrow=classic;html=1;rounded=0;" edge="1" parent="WIyWlLk6GJQsqaUBKTNV-1">
          <mxGeometry width="50" height="50" relative="1" as="geometry">
            <mxPoint x="240" y="160" as="sourcePoint" />
            <mxPoint x="240" y="80" as="targetPoint" />
          </mxGeometry>
        </mxCell>
        <mxCell id="hS4W13zyt8rh5WFPuw_2-25" value="" style="endArrow=classic;startArrow=classic;html=1;rounded=0;" edge="1" parent="WIyWlLk6GJQsqaUBKTNV-1">
          <mxGeometry width="50" height="50" relative="1" as="geometry">
            <mxPoint x="240" y="280" as="sourcePoint" />
            <mxPoint x="240" y="210" as="targetPoint" />
          </mxGeometry>
        </mxCell>
        <mxCell id="hS4W13zyt8rh5WFPuw_2-26" value="" style="endArrow=classic;startArrow=classic;html=1;rounded=0;" edge="1" parent="WIyWlLk6GJQsqaUBKTNV-1">
          <mxGeometry width="50" height="50" relative="1" as="geometry">
            <mxPoint x="240" y="400" as="sourcePoint" />
            <mxPoint x="240" y="330" as="targetPoint" />
          </mxGeometry>
        </mxCell>
        <mxCell id="hS4W13zyt8rh5WFPuw_2-27" value="" style="endArrow=classic;html=1;rounded=0;" edge="1" parent="WIyWlLk6GJQsqaUBKTNV-1">
          <mxGeometry width="50" height="50" relative="1" as="geometry">
            <mxPoint x="244" y="80" as="sourcePoint" />
            <mxPoint x="334" y="80" as="targetPoint" />
          </mxGeometry>
        </mxCell>
        <mxCell id="hS4W13zyt8rh5WFPuw_2-28" value="" style="endArrow=classic;html=1;rounded=0;" edge="1" parent="WIyWlLk6GJQsqaUBKTNV-1">
          <mxGeometry width="50" height="50" relative="1" as="geometry">
            <mxPoint x="244" y="154.55" as="sourcePoint" />
            <mxPoint x="334" y="154.55" as="targetPoint" />
          </mxGeometry>
        </mxCell>
        <mxCell id="hS4W13zyt8rh5WFPuw_2-29" value="" style="endArrow=classic;html=1;rounded=0;" edge="1" parent="WIyWlLk6GJQsqaUBKTNV-1">
          <mxGeometry width="50" height="50" relative="1" as="geometry">
            <mxPoint x="244" y="214.55" as="sourcePoint" />
            <mxPoint x="334" y="214.55" as="targetPoint" />
          </mxGeometry>
        </mxCell>
        <mxCell id="hS4W13zyt8rh5WFPuw_2-30" value="" style="endArrow=classic;html=1;rounded=0;" edge="1" parent="WIyWlLk6GJQsqaUBKTNV-1">
          <mxGeometry width="50" height="50" relative="1" as="geometry">
            <mxPoint x="244" y="334.55" as="sourcePoint" />
            <mxPoint x="334" y="334.55" as="targetPoint" />
          </mxGeometry>
        </mxCell>
        <mxCell id="hS4W13zyt8rh5WFPuw_2-31" value="" style="endArrow=classic;html=1;rounded=0;" edge="1" parent="WIyWlLk6GJQsqaUBKTNV-1">
          <mxGeometry width="50" height="50" relative="1" as="geometry">
            <mxPoint x="244" y="280" as="sourcePoint" />
            <mxPoint x="334" y="280" as="targetPoint" />
          </mxGeometry>
        </mxCell>
        <mxCell id="hS4W13zyt8rh5WFPuw_2-32" value="" style="endArrow=classic;html=1;rounded=0;" edge="1" parent="WIyWlLk6GJQsqaUBKTNV-1">
          <mxGeometry width="50" height="50" relative="1" as="geometry">
            <mxPoint x="244" y="394.55" as="sourcePoint" />
            <mxPoint x="334" y="394.55" as="targetPoint" />
          </mxGeometry>
        </mxCell>
        <mxCell id="hS4W13zyt8rh5WFPuw_2-62" style="edgeStyle=orthogonalEdgeStyle;rounded=0;orthogonalLoop=1;jettySize=auto;html=1;exitX=1;exitY=0.5;exitDx=0;exitDy=0;" edge="1" parent="WIyWlLk6GJQsqaUBKTNV-1" source="hS4W13zyt8rh5WFPuw_2-34" target="hS4W13zyt8rh5WFPuw_2-47">
          <mxGeometry relative="1" as="geometry" />
        </mxCell>
        <mxCell id="hS4W13zyt8rh5WFPuw_2-34" value="If a&amp;gt;c" style="rhombus;whiteSpace=wrap;html=1;" vertex="1" parent="WIyWlLk6GJQsqaUBKTNV-1">
          <mxGeometry x="334" y="60" width="56" height="50" as="geometry" />
        </mxCell>
        <mxCell id="hS4W13zyt8rh5WFPuw_2-65" style="edgeStyle=orthogonalEdgeStyle;rounded=0;orthogonalLoop=1;jettySize=auto;html=1;exitX=1;exitY=0.5;exitDx=0;exitDy=0;entryX=0;entryY=0.25;entryDx=0;entryDy=0;" edge="1" parent="WIyWlLk6GJQsqaUBKTNV-1" source="hS4W13zyt8rh5WFPuw_2-41" target="hS4W13zyt8rh5WFPuw_2-50">
          <mxGeometry relative="1" as="geometry" />
        </mxCell>
        <mxCell id="hS4W13zyt8rh5WFPuw_2-41" value="If b&amp;gt;a" style="rhombus;whiteSpace=wrap;html=1;" vertex="1" parent="WIyWlLk6GJQsqaUBKTNV-1">
          <mxGeometry x="334" y="250" width="56" height="50" as="geometry" />
        </mxCell>
        <mxCell id="hS4W13zyt8rh5WFPuw_2-64" style="edgeStyle=orthogonalEdgeStyle;rounded=0;orthogonalLoop=1;jettySize=auto;html=1;exitX=1;exitY=0.5;exitDx=0;exitDy=0;entryX=0;entryY=0.25;entryDx=0;entryDy=0;" edge="1" parent="WIyWlLk6GJQsqaUBKTNV-1" source="hS4W13zyt8rh5WFPuw_2-42" target="hS4W13zyt8rh5WFPuw_2-49">
          <mxGeometry relative="1" as="geometry" />
        </mxCell>
        <mxCell id="hS4W13zyt8rh5WFPuw_2-42" value="If a&amp;gt;b" style="rhombus;whiteSpace=wrap;html=1;" vertex="1" parent="WIyWlLk6GJQsqaUBKTNV-1">
          <mxGeometry x="334" y="190" width="56" height="50" as="geometry" />
        </mxCell>
        <mxCell id="hS4W13zyt8rh5WFPuw_2-63" style="edgeStyle=orthogonalEdgeStyle;rounded=0;orthogonalLoop=1;jettySize=auto;html=1;exitX=1;exitY=0.5;exitDx=0;exitDy=0;entryX=0;entryY=0.25;entryDx=0;entryDy=0;" edge="1" parent="WIyWlLk6GJQsqaUBKTNV-1" source="hS4W13zyt8rh5WFPuw_2-43" target="hS4W13zyt8rh5WFPuw_2-48">
          <mxGeometry relative="1" as="geometry" />
        </mxCell>
        <mxCell id="hS4W13zyt8rh5WFPuw_2-43" value="If c&amp;gt;a" style="rhombus;whiteSpace=wrap;html=1;" vertex="1" parent="WIyWlLk6GJQsqaUBKTNV-1">
          <mxGeometry x="334" y="130" width="56" height="50" as="geometry" />
        </mxCell>
        <mxCell id="hS4W13zyt8rh5WFPuw_2-66" value="" style="edgeStyle=orthogonalEdgeStyle;rounded=0;orthogonalLoop=1;jettySize=auto;html=1;" edge="1" parent="WIyWlLk6GJQsqaUBKTNV-1" source="hS4W13zyt8rh5WFPuw_2-44" target="hS4W13zyt8rh5WFPuw_2-51">
          <mxGeometry relative="1" as="geometry" />
        </mxCell>
        <mxCell id="hS4W13zyt8rh5WFPuw_2-44" value="If c&amp;gt;b" style="rhombus;whiteSpace=wrap;html=1;" vertex="1" parent="WIyWlLk6GJQsqaUBKTNV-1">
          <mxGeometry x="334" y="310" width="56" height="50" as="geometry" />
        </mxCell>
        <mxCell id="hS4W13zyt8rh5WFPuw_2-68" style="edgeStyle=orthogonalEdgeStyle;rounded=0;orthogonalLoop=1;jettySize=auto;html=1;exitX=1;exitY=0.5;exitDx=0;exitDy=0;entryX=0;entryY=0.5;entryDx=0;entryDy=0;" edge="1" parent="WIyWlLk6GJQsqaUBKTNV-1" source="hS4W13zyt8rh5WFPuw_2-45" target="hS4W13zyt8rh5WFPuw_2-52">
          <mxGeometry relative="1" as="geometry" />
        </mxCell>
        <mxCell id="hS4W13zyt8rh5WFPuw_2-45" value="If b&amp;gt;c" style="rhombus;whiteSpace=wrap;html=1;" vertex="1" parent="WIyWlLk6GJQsqaUBKTNV-1">
          <mxGeometry x="334" y="370" width="56" height="50" as="geometry" />
        </mxCell>
        <mxCell id="hS4W13zyt8rh5WFPuw_2-69" style="edgeStyle=orthogonalEdgeStyle;rounded=0;orthogonalLoop=1;jettySize=auto;html=1;" edge="1" parent="WIyWlLk6GJQsqaUBKTNV-1" source="hS4W13zyt8rh5WFPuw_2-47">
          <mxGeometry relative="1" as="geometry">
            <mxPoint x="590" y="580" as="targetPoint" />
          </mxGeometry>
        </mxCell>
        <mxCell id="hS4W13zyt8rh5WFPuw_2-47" value="Print (c,a,b)" style="rounded=0;whiteSpace=wrap;html=1;" vertex="1" parent="WIyWlLk6GJQsqaUBKTNV-1">
          <mxGeometry x="440" y="75" width="100" height="20" as="geometry" />
        </mxCell>
        <mxCell id="hS4W13zyt8rh5WFPuw_2-48" value="Print (a,c,b)" style="rounded=0;whiteSpace=wrap;html=1;" vertex="1" parent="WIyWlLk6GJQsqaUBKTNV-1">
          <mxGeometry x="440" y="150" width="100" height="20" as="geometry" />
        </mxCell>
        <mxCell id="hS4W13zyt8rh5WFPuw_2-49" value="Print (b,a,c)" style="rounded=0;whiteSpace=wrap;html=1;" vertex="1" parent="WIyWlLk6GJQsqaUBKTNV-1">
          <mxGeometry x="440" y="210" width="100" height="20" as="geometry" />
        </mxCell>
        <mxCell id="hS4W13zyt8rh5WFPuw_2-50" value="Print (a,b,c)" style="rounded=0;whiteSpace=wrap;html=1;" vertex="1" parent="WIyWlLk6GJQsqaUBKTNV-1">
          <mxGeometry x="440" y="270" width="100" height="20" as="geometry" />
        </mxCell>
        <mxCell id="hS4W13zyt8rh5WFPuw_2-51" value="Print (b,c,a)" style="rounded=0;whiteSpace=wrap;html=1;" vertex="1" parent="WIyWlLk6GJQsqaUBKTNV-1">
          <mxGeometry x="440" y="325" width="100" height="20" as="geometry" />
        </mxCell>
        <mxCell id="hS4W13zyt8rh5WFPuw_2-52" value="Print (c,b,a)" style="rounded=0;whiteSpace=wrap;html=1;" vertex="1" parent="WIyWlLk6GJQsqaUBKTNV-1">
          <mxGeometry x="440" y="385" width="100" height="20" as="geometry" />
        </mxCell>
        <mxCell id="hS4W13zyt8rh5WFPuw_2-54" style="edgeStyle=orthogonalEdgeStyle;rounded=0;orthogonalLoop=1;jettySize=auto;html=1;exitX=0.5;exitY=1;exitDx=0;exitDy=0;" edge="1" parent="WIyWlLk6GJQsqaUBKTNV-1" source="hS4W13zyt8rh5WFPuw_2-47" target="hS4W13zyt8rh5WFPuw_2-47">
          <mxGeometry relative="1" as="geometry" />
        </mxCell>
        <mxCell id="hS4W13zyt8rh5WFPuw_2-67" style="edgeStyle=orthogonalEdgeStyle;rounded=0;orthogonalLoop=1;jettySize=auto;html=1;exitX=0.5;exitY=1;exitDx=0;exitDy=0;entryX=0.25;entryY=1;entryDx=0;entryDy=0;" edge="1" parent="WIyWlLk6GJQsqaUBKTNV-1" source="hS4W13zyt8rh5WFPuw_2-51" target="hS4W13zyt8rh5WFPuw_2-51">
          <mxGeometry relative="1" as="geometry" />
        </mxCell>
        <mxCell id="hS4W13zyt8rh5WFPuw_2-72" value="" style="endArrow=none;html=1;rounded=0;" edge="1" parent="WIyWlLk6GJQsqaUBKTNV-1">
          <mxGeometry width="50" height="50" relative="1" as="geometry">
            <mxPoint x="540" y="159.55" as="sourcePoint" />
            <mxPoint x="590" y="160" as="targetPoint" />
            <Array as="points" />
          </mxGeometry>
        </mxCell>
        <mxCell id="hS4W13zyt8rh5WFPuw_2-73" value="" style="endArrow=none;html=1;rounded=0;" edge="1" parent="WIyWlLk6GJQsqaUBKTNV-1">
          <mxGeometry width="50" height="50" relative="1" as="geometry">
            <mxPoint x="540" y="219.54999999999995" as="sourcePoint" />
            <mxPoint x="590" y="220" as="targetPoint" />
            <Array as="points" />
          </mxGeometry>
        </mxCell>
        <mxCell id="hS4W13zyt8rh5WFPuw_2-74" value="" style="endArrow=none;html=1;rounded=0;" edge="1" parent="WIyWlLk6GJQsqaUBKTNV-1">
          <mxGeometry width="50" height="50" relative="1" as="geometry">
            <mxPoint x="540" y="274.54999999999995" as="sourcePoint" />
            <mxPoint x="590" y="275" as="targetPoint" />
            <Array as="points" />
          </mxGeometry>
        </mxCell>
        <mxCell id="hS4W13zyt8rh5WFPuw_2-75" value="" style="endArrow=none;html=1;rounded=0;" edge="1" parent="WIyWlLk6GJQsqaUBKTNV-1">
          <mxGeometry width="50" height="50" relative="1" as="geometry">
            <mxPoint x="540" y="334.54999999999995" as="sourcePoint" />
            <mxPoint x="590" y="335" as="targetPoint" />
            <Array as="points" />
          </mxGeometry>
        </mxCell>
        <mxCell id="hS4W13zyt8rh5WFPuw_2-76" value="" style="endArrow=none;html=1;rounded=0;" edge="1" parent="WIyWlLk6GJQsqaUBKTNV-1">
          <mxGeometry width="50" height="50" relative="1" as="geometry">
            <mxPoint x="540" y="394.0899999999999" as="sourcePoint" />
            <mxPoint x="590" y="394.53999999999996" as="targetPoint" />
            <Array as="points" />
          </mxGeometry>
        </mxCell>
        <mxCell id="hS4W13zyt8rh5WFPuw_2-78" value="" style="endArrow=classic;html=1;rounded=0;" edge="1" parent="WIyWlLk6GJQsqaUBKTNV-1">
          <mxGeometry width="50" height="50" relative="1" as="geometry">
            <mxPoint x="590" y="580" as="sourcePoint" />
            <mxPoint x="160" y="574.55" as="targetPoint" />
          </mxGeometry>
        </mxCell>
        <mxCell id="hS4W13zyt8rh5WFPuw_2-80" value="True" style="text;html=1;strokeColor=none;fillColor=none;align=center;verticalAlign=middle;whiteSpace=wrap;rounded=0;" vertex="1" parent="WIyWlLk6GJQsqaUBKTNV-1">
          <mxGeometry x="160" y="220" width="60" height="30" as="geometry" />
        </mxCell>
        <mxCell id="hS4W13zyt8rh5WFPuw_2-81" value="True" style="text;html=1;strokeColor=none;fillColor=none;align=center;verticalAlign=middle;whiteSpace=wrap;rounded=0;" vertex="1" parent="WIyWlLk6GJQsqaUBKTNV-1">
          <mxGeometry x="160" y="100" width="60" height="30" as="geometry" />
        </mxCell>
        <mxCell id="hS4W13zyt8rh5WFPuw_2-79" value="True" style="text;html=1;strokeColor=none;fillColor=none;align=center;verticalAlign=middle;whiteSpace=wrap;rounded=0;" vertex="1" parent="WIyWlLk6GJQsqaUBKTNV-1">
          <mxGeometry x="160" y="330" width="60" height="30" as="geometry" />
        </mxCell>
      </root>
    </mxGraphModel>
  </diagram>
</mxfile>
